%
M48
M72
T01C0.0197
T02C0.0315
T03C0.0394
T04C0.0594
T05C0.0866
%
T01
X1111Y1251
X1739Y1667
X1739Y2171
X1739Y2681
X1745Y3197
X1739Y4211
X3866Y3888
X4498Y3922
X3895Y5041
X4929Y6413
X3749Y7193
X3290Y8135
X4512Y8561
X5291Y7873
X5922Y8526
X5647Y8847
X6326Y7961
X7381Y6922
X8012Y7325
X9374Y7262
X7811Y8337
X8812Y8637
X8903Y9319
X9230Y10862
X7410Y10856
X3956Y9870
X3711Y10253
X1737Y10481
X909Y10896
X2093Y6780
X7387Y4493
X7954Y4619
X7570Y3422
X7172Y2951
X8351Y2156
X8780Y2598
X9728Y1937
X10964Y2198
X11035Y4186
X10237Y5447
X11264Y7547
X11276Y9089
X5573Y2592
X5800Y2011
X3866Y2606
X3883Y1308
T02
X2086Y1673
X2086Y2173
X2086Y2683
X2086Y3194
X2086Y4214
X2086Y4714
X2086Y5221
X2086Y5744
X7462Y2690
X7878Y3136
X8509Y2851
X8079Y2435
X8416Y4612
X10239Y4959
T03
X2093Y3710
T04
X10959Y2894
X11012Y3734
T05
X9003Y5805
X5603Y10106
M30
