G75*
%MOIN*%
%OFA0B0*%
%FSLAX25Y25*%
%IPPOS*%
%LPD*%
%AMOC8*
5,1,8,0,0,1.08239X$1,22.5*
%
%ADD10C,0.00200*%
%ADD11C,0.00300*%
%ADD12R,0.03400X0.00040*%
%ADD13R,0.02440X0.00040*%
%ADD14R,0.03120X0.00040*%
%ADD15R,0.01920X0.00040*%
%ADD16R,0.02800X0.00040*%
%ADD17R,0.00600X0.00040*%
%ADD18R,0.00760X0.00040*%
%ADD19R,0.03120X0.00040*%
%ADD20R,0.01840X0.00040*%
%ADD21R,0.00760X0.00040*%
%ADD22R,0.03800X0.00040*%
%ADD23R,0.02880X0.00040*%
%ADD24R,0.03320X0.00040*%
%ADD25R,0.02000X0.00040*%
%ADD26R,0.03040X0.00040*%
%ADD27R,0.00720X0.00040*%
%ADD28R,0.01040X0.00040*%
%ADD29R,0.01000X0.00040*%
%ADD30R,0.03880X0.00040*%
%ADD31R,0.03280X0.00040*%
%ADD32R,0.02040X0.00040*%
%ADD33R,0.03160X0.00040*%
%ADD34R,0.01120X0.00040*%
%ADD35R,0.03280X0.00040*%
%ADD36R,0.02040X0.00040*%
%ADD37R,0.03960X0.00040*%
%ADD38R,0.03280X0.00040*%
%ADD39R,0.03240X0.00040*%
%ADD40R,0.02000X0.00040*%
%ADD41R,0.03240X0.00040*%
%ADD42R,0.00720X0.00040*%
%ADD43R,0.01280X0.00040*%
%ADD44R,0.03960X0.00040*%
%ADD45R,0.04040X0.00040*%
%ADD46R,0.03440X0.00040*%
%ADD47R,0.03200X0.00040*%
%ADD48R,0.01400X0.00040*%
%ADD49R,0.04120X0.00040*%
%ADD50R,0.03560X0.00040*%
%ADD51R,0.00720X0.00040*%
%ADD52R,0.01560X0.00040*%
%ADD53R,0.04120X0.00040*%
%ADD54R,0.04160X0.00040*%
%ADD55R,0.03680X0.00040*%
%ADD56R,0.01640X0.00040*%
%ADD57R,0.04200X0.00040*%
%ADD58R,0.03760X0.00040*%
%ADD59R,0.03040X0.00040*%
%ADD60R,0.03520X0.00040*%
%ADD61R,0.01800X0.00040*%
%ADD62R,0.04240X0.00040*%
%ADD63R,0.03840X0.00040*%
%ADD64R,0.03000X0.00040*%
%ADD65R,0.02040X0.00040*%
%ADD66R,0.03560X0.00040*%
%ADD67R,0.00760X0.00040*%
%ADD68R,0.01920X0.00040*%
%ADD69R,0.04280X0.00040*%
%ADD70R,0.03960X0.00040*%
%ADD71R,0.02960X0.00040*%
%ADD72R,0.03600X0.00040*%
%ADD73R,0.02960X0.00040*%
%ADD74R,0.04280X0.00040*%
%ADD75R,0.04000X0.00040*%
%ADD76R,0.02920X0.00040*%
%ADD77R,0.02160X0.00040*%
%ADD78R,0.04320X0.00040*%
%ADD79R,0.01680X0.00040*%
%ADD80R,0.00680X0.00040*%
%ADD81R,0.02080X0.00040*%
%ADD82R,0.03640X0.00040*%
%ADD83R,0.02320X0.00040*%
%ADD84R,0.00680X0.00040*%
%ADD85R,0.01680X0.00040*%
%ADD86R,0.01920X0.00040*%
%ADD87R,0.01760X0.00040*%
%ADD88R,0.01720X0.00040*%
%ADD89R,0.00840X0.00040*%
%ADD90R,0.01760X0.00040*%
%ADD91R,0.00640X0.00040*%
%ADD92R,0.01640X0.00040*%
%ADD93R,0.01720X0.00040*%
%ADD94R,0.00640X0.00040*%
%ADD95R,0.01680X0.00040*%
%ADD96R,0.02560X0.00040*%
%ADD97R,0.00680X0.00040*%
%ADD98R,0.01600X0.00040*%
%ADD99R,0.02680X0.00040*%
%ADD100R,0.00640X0.00040*%
%ADD101R,0.02840X0.00040*%
%ADD102R,0.02080X0.00040*%
%ADD103R,0.01640X0.00040*%
%ADD104R,0.03080X0.00040*%
%ADD105R,0.01680X0.00040*%
%ADD106R,0.01600X0.00040*%
%ADD107R,0.00640X0.00040*%
%ADD108R,0.03200X0.00040*%
%ADD109R,0.03360X0.00040*%
%ADD110R,0.01720X0.00040*%
%ADD111R,0.03480X0.00040*%
%ADD112R,0.03720X0.00040*%
%ADD113R,0.01640X0.00040*%
%ADD114R,0.02080X0.00040*%
%ADD115R,0.03880X0.00040*%
%ADD116R,0.02080X0.00040*%
%ADD117R,0.00080X0.00040*%
%ADD118R,0.00120X0.00040*%
%ADD119R,0.00200X0.00040*%
%ADD120R,0.04240X0.00040*%
%ADD121R,0.00280X0.00040*%
%ADD122R,0.05040X0.00040*%
%ADD123R,0.00320X0.00040*%
%ADD124R,0.01720X0.00040*%
%ADD125R,0.00720X0.00040*%
%ADD126R,0.00600X0.00040*%
%ADD127R,0.05040X0.00040*%
%ADD128R,0.02040X0.00040*%
%ADD129R,0.00400X0.00040*%
%ADD130R,0.00480X0.00040*%
%ADD131R,0.00520X0.00040*%
%ADD132R,0.05040X0.00040*%
%ADD133R,0.01760X0.00040*%
%ADD134R,0.00800X0.00040*%
%ADD135R,0.00880X0.00040*%
%ADD136R,0.00920X0.00040*%
%ADD137R,0.01000X0.00040*%
%ADD138R,0.04080X0.00040*%
%ADD139R,0.01080X0.00040*%
%ADD140R,0.03920X0.00040*%
%ADD141R,0.02760X0.00040*%
%ADD142R,0.03840X0.00040*%
%ADD143R,0.01200X0.00040*%
%ADD144R,0.02640X0.00040*%
%ADD145R,0.03680X0.00040*%
%ADD146R,0.01280X0.00040*%
%ADD147R,0.02520X0.00040*%
%ADD148R,0.01360X0.00040*%
%ADD149R,0.02480X0.00040*%
%ADD150R,0.03400X0.00040*%
%ADD151R,0.02440X0.00040*%
%ADD152R,0.02360X0.00040*%
%ADD153R,0.03320X0.00040*%
%ADD154R,0.02360X0.00040*%
%ADD155R,0.01480X0.00040*%
%ADD156R,0.02240X0.00040*%
%ADD157R,0.03160X0.00040*%
%ADD158R,0.02240X0.00040*%
%ADD159R,0.02200X0.00040*%
%ADD160R,0.02160X0.00040*%
%ADD161R,0.02880X0.00040*%
%ADD162R,0.01960X0.00040*%
%ADD163R,0.01520X0.00040*%
%ADD164R,0.02800X0.00040*%
%ADD165R,0.01880X0.00040*%
%ADD166R,0.01880X0.00040*%
%ADD167R,0.01960X0.00040*%
%ADD168R,0.02280X0.00040*%
%ADD169R,0.04320X0.00040*%
%ADD170R,0.02120X0.00040*%
%ADD171R,0.01480X0.00040*%
%ADD172R,0.04320X0.00040*%
%ADD173R,0.01360X0.00040*%
%ADD174R,0.01840X0.00040*%
%ADD175R,0.01320X0.00040*%
%ADD176R,0.01240X0.00040*%
%ADD177R,0.02280X0.00040*%
%ADD178R,0.01080X0.00040*%
%ADD179R,0.02360X0.00040*%
%ADD180R,0.04040X0.00040*%
%ADD181R,0.02440X0.00040*%
%ADD182R,0.00920X0.00040*%
%ADD183R,0.02480X0.00040*%
%ADD184R,0.00840X0.00040*%
%ADD185R,0.03920X0.00040*%
%ADD186R,0.02560X0.00040*%
%ADD187R,0.03840X0.00040*%
%ADD188R,0.00960X0.00040*%
%ADD189R,0.02680X0.00040*%
%ADD190R,0.03480X0.00040*%
%ADD191R,0.01560X0.00040*%
%ADD192R,0.00560X0.00040*%
%ADD193R,0.00760X0.00040*%
%ADD194R,0.00680X0.00040*%
%ADD195R,0.00480X0.00040*%
%ADD196R,0.00840X0.00040*%
%ADD197R,0.03480X0.00040*%
%ADD198R,0.02840X0.00040*%
%ADD199R,0.03040X0.00040*%
%ADD200R,0.03240X0.00040*%
%ADD201R,0.03360X0.00040*%
%ADD202R,0.03480X0.00040*%
%ADD203R,0.03680X0.00040*%
%ADD204R,0.05360X0.00040*%
%ADD205R,0.01480X0.00040*%
%ADD206R,0.01800X0.00040*%
%ADD207R,0.05720X0.00040*%
%ADD208R,0.05840X0.00040*%
%ADD209R,0.05960X0.00040*%
%ADD210R,0.06000X0.00040*%
%ADD211R,0.06080X0.00040*%
%ADD212R,0.01880X0.00040*%
%ADD213R,0.06120X0.00040*%
%ADD214R,0.01920X0.00040*%
%ADD215R,0.06160X0.00040*%
%ADD216R,0.06200X0.00040*%
%ADD217R,0.06240X0.00040*%
%ADD218R,0.02400X0.00040*%
%ADD219R,0.06240X0.00040*%
%ADD220R,0.06280X0.00040*%
%ADD221R,0.03240X0.00040*%
%ADD222R,0.06280X0.00040*%
%ADD223R,0.03360X0.00040*%
%ADD224R,0.04040X0.00040*%
%ADD225R,0.04360X0.00040*%
%ADD226R,0.04440X0.00040*%
%ADD227R,0.04520X0.00040*%
%ADD228R,0.04400X0.00040*%
%ADD229R,0.04520X0.00040*%
%ADD230R,0.01960X0.00040*%
%ADD231R,0.04560X0.00040*%
%ADD232R,0.04120X0.00040*%
%ADD233R,0.06320X0.00040*%
%ADD234R,0.02120X0.00040*%
%ADD235R,0.06320X0.00040*%
%ADD236R,0.06320X0.00040*%
%ADD237R,0.06240X0.00040*%
%ADD238R,0.01760X0.00040*%
%ADD239R,0.06760X0.00040*%
%ADD240R,0.06640X0.00040*%
%ADD241R,0.06720X0.00040*%
%ADD242R,0.06720X0.00040*%
%ADD243R,0.06280X0.00040*%
%ADD244R,0.06640X0.00040*%
%ADD245R,0.06680X0.00040*%
%ADD246R,0.06600X0.00040*%
%ADD247R,0.06680X0.00040*%
%ADD248R,0.06640X0.00040*%
%ADD249R,0.06560X0.00040*%
%ADD250R,0.06560X0.00040*%
%ADD251R,0.06600X0.00040*%
%ADD252R,0.06520X0.00040*%
%ADD253R,0.06480X0.00040*%
%ADD254R,0.06520X0.00040*%
%ADD255R,0.06440X0.00040*%
%ADD256R,0.06160X0.00040*%
%ADD257R,0.06400X0.00040*%
%ADD258R,0.06120X0.00040*%
%ADD259R,0.06360X0.00040*%
%ADD260R,0.06080X0.00040*%
%ADD261R,0.06040X0.00040*%
%ADD262R,0.05920X0.00040*%
%ADD263R,0.05600X0.00040*%
%ADD264R,0.05760X0.00040*%
%ADD265R,0.05680X0.00040*%
%ADD266R,0.00440X0.00040*%
%ADD267R,0.02240X0.00040*%
%ADD268C,0.00800*%
%ADD269C,0.01063*%
D10*
X0007466Y0015539D02*
X0008200Y0015539D01*
X0007833Y0015539D02*
X0007833Y0017741D01*
X0007466Y0017741D02*
X0008200Y0017741D01*
X0008939Y0017374D02*
X0008939Y0015906D01*
X0009306Y0015539D01*
X0010040Y0015539D01*
X0010407Y0015906D01*
X0010407Y0017374D01*
X0010040Y0017741D01*
X0009306Y0017741D01*
X0008939Y0017374D01*
X0011149Y0015539D02*
X0012617Y0017741D01*
X0013359Y0017374D02*
X0013359Y0015906D01*
X0014827Y0017374D01*
X0014827Y0015906D01*
X0014460Y0015539D01*
X0013726Y0015539D01*
X0013359Y0015906D01*
X0013359Y0017374D02*
X0013726Y0017741D01*
X0014460Y0017741D01*
X0014827Y0017374D01*
X0014827Y0020519D02*
X0013359Y0020519D01*
X0014093Y0020519D02*
X0014093Y0022721D01*
X0013359Y0021987D01*
X0012617Y0022721D02*
X0011149Y0020519D01*
X0010407Y0020886D02*
X0010040Y0020519D01*
X0009306Y0020519D01*
X0008939Y0020886D01*
X0008939Y0022354D01*
X0009306Y0022721D01*
X0010040Y0022721D01*
X0010407Y0022354D01*
X0010407Y0020886D01*
X0008200Y0020519D02*
X0007466Y0020519D01*
X0007833Y0020519D02*
X0007833Y0022721D01*
X0007466Y0022721D02*
X0008200Y0022721D01*
X0008200Y0025499D02*
X0007466Y0025499D01*
X0007833Y0025499D02*
X0007833Y0027701D01*
X0007466Y0027701D02*
X0008200Y0027701D01*
X0008939Y0027334D02*
X0008939Y0025866D01*
X0009306Y0025499D01*
X0010040Y0025499D01*
X0010407Y0025866D01*
X0010407Y0027334D01*
X0010040Y0027701D01*
X0009306Y0027701D01*
X0008939Y0027334D01*
X0011149Y0025499D02*
X0012617Y0027701D01*
X0013359Y0027334D02*
X0013726Y0027701D01*
X0014460Y0027701D01*
X0014827Y0027334D01*
X0014827Y0026967D01*
X0013359Y0025499D01*
X0014827Y0025499D01*
X0014460Y0030599D02*
X0013726Y0030599D01*
X0013359Y0030966D01*
X0014093Y0031700D02*
X0014460Y0031700D01*
X0014827Y0031333D01*
X0014827Y0030966D01*
X0014460Y0030599D01*
X0014460Y0031700D02*
X0014827Y0032067D01*
X0014827Y0032434D01*
X0014460Y0032801D01*
X0013726Y0032801D01*
X0013359Y0032434D01*
X0012617Y0032801D02*
X0011149Y0030599D01*
X0010407Y0030966D02*
X0010407Y0032434D01*
X0010040Y0032801D01*
X0009306Y0032801D01*
X0008939Y0032434D01*
X0008939Y0030966D01*
X0009306Y0030599D01*
X0010040Y0030599D01*
X0010407Y0030966D01*
X0008200Y0030599D02*
X0007466Y0030599D01*
X0007833Y0030599D02*
X0007833Y0032801D01*
X0007466Y0032801D02*
X0008200Y0032801D01*
X0008170Y0041039D02*
X0007436Y0041039D01*
X0007803Y0041039D02*
X0007803Y0043241D01*
X0007436Y0043241D02*
X0008170Y0043241D01*
X0008909Y0042874D02*
X0008909Y0041406D01*
X0009276Y0041039D01*
X0010010Y0041039D01*
X0010377Y0041406D01*
X0010377Y0042874D01*
X0010010Y0043241D01*
X0009276Y0043241D01*
X0008909Y0042874D01*
X0011119Y0041039D02*
X0012587Y0043241D01*
X0013329Y0042140D02*
X0014797Y0042140D01*
X0014430Y0043241D02*
X0013329Y0042140D01*
X0014430Y0041039D02*
X0014430Y0043241D01*
X0014400Y0046379D02*
X0013666Y0046379D01*
X0013299Y0046746D01*
X0013299Y0047480D02*
X0014033Y0047847D01*
X0014400Y0047847D01*
X0014767Y0047480D01*
X0014767Y0046746D01*
X0014400Y0046379D01*
X0013299Y0047480D02*
X0013299Y0048581D01*
X0014767Y0048581D01*
X0012557Y0048581D02*
X0011089Y0046379D01*
X0010347Y0046746D02*
X0010347Y0048214D01*
X0009980Y0048581D01*
X0009246Y0048581D01*
X0008879Y0048214D01*
X0008879Y0046746D01*
X0009246Y0046379D01*
X0009980Y0046379D01*
X0010347Y0046746D01*
X0008140Y0046379D02*
X0007406Y0046379D01*
X0007773Y0046379D02*
X0007773Y0048581D01*
X0007406Y0048581D02*
X0008140Y0048581D01*
X0008140Y0051689D02*
X0007406Y0051689D01*
X0007773Y0051689D02*
X0007773Y0053891D01*
X0007406Y0053891D02*
X0008140Y0053891D01*
X0008879Y0053524D02*
X0008879Y0052056D01*
X0009246Y0051689D01*
X0009980Y0051689D01*
X0010347Y0052056D01*
X0010347Y0053524D01*
X0009980Y0053891D01*
X0009246Y0053891D01*
X0008879Y0053524D01*
X0009276Y0056309D02*
X0010010Y0056309D01*
X0010377Y0056676D01*
X0010377Y0058144D01*
X0010010Y0058511D01*
X0009276Y0058511D01*
X0008909Y0058144D01*
X0008909Y0056676D01*
X0009276Y0056309D01*
X0008170Y0056309D02*
X0007436Y0056309D01*
X0007803Y0056309D02*
X0007803Y0058511D01*
X0007436Y0058511D02*
X0008170Y0058511D01*
X0011119Y0056309D02*
X0012587Y0058511D01*
X0013329Y0058511D02*
X0014797Y0058511D01*
X0014797Y0058144D01*
X0013329Y0056676D01*
X0013329Y0056309D01*
X0012557Y0053891D02*
X0011089Y0051689D01*
X0013299Y0052056D02*
X0013666Y0051689D01*
X0014400Y0051689D01*
X0014767Y0052056D01*
X0014767Y0052423D01*
X0014400Y0052790D01*
X0013299Y0052790D01*
X0013299Y0052056D01*
X0013299Y0052790D02*
X0014033Y0053524D01*
X0014767Y0053891D01*
X0033835Y0045476D02*
X0033835Y0044008D01*
X0034202Y0043641D01*
X0034936Y0043641D01*
X0035303Y0044008D01*
X0036045Y0043641D02*
X0037512Y0043641D01*
X0036779Y0044742D02*
X0036045Y0044742D01*
X0035303Y0045476D02*
X0034936Y0045843D01*
X0034202Y0045843D01*
X0033835Y0045476D01*
X0036045Y0045843D02*
X0036045Y0043641D01*
X0036045Y0045843D02*
X0037512Y0045843D01*
X0040464Y0045476D02*
X0040831Y0045843D01*
X0041565Y0045843D01*
X0041932Y0045476D01*
X0041932Y0045109D01*
X0040464Y0043641D01*
X0041932Y0043641D01*
X0041198Y0033023D02*
X0041198Y0030821D01*
X0040464Y0030821D02*
X0041932Y0030821D01*
X0040464Y0032289D02*
X0041198Y0033023D01*
X0037512Y0033023D02*
X0036045Y0033023D01*
X0036045Y0030821D01*
X0037512Y0030821D01*
X0036779Y0031922D02*
X0036045Y0031922D01*
X0035303Y0031188D02*
X0034936Y0030821D01*
X0034202Y0030821D01*
X0033835Y0031188D01*
X0033835Y0032656D01*
X0034202Y0033023D01*
X0034936Y0033023D01*
X0035303Y0032656D01*
X0036551Y0020335D02*
X0037651Y0020335D01*
X0038018Y0019968D01*
X0038018Y0019234D01*
X0037651Y0018867D01*
X0036551Y0018867D01*
X0037284Y0018867D02*
X0038018Y0018133D01*
X0038760Y0018133D02*
X0038760Y0020335D01*
X0039861Y0020335D01*
X0040228Y0019968D01*
X0040228Y0019601D01*
X0039861Y0019234D01*
X0038760Y0019234D01*
X0039861Y0019234D02*
X0040228Y0018867D01*
X0040228Y0018500D01*
X0039861Y0018133D01*
X0038760Y0018133D01*
X0036551Y0018133D02*
X0036551Y0020335D01*
X0065196Y0031618D02*
X0065930Y0032352D01*
X0066664Y0031618D01*
X0066664Y0033819D01*
X0067406Y0033819D02*
X0067406Y0031618D01*
X0068874Y0031618D01*
X0068140Y0032719D02*
X0067406Y0032719D01*
X0067406Y0033819D02*
X0068874Y0033819D01*
X0065196Y0033819D02*
X0065196Y0031618D01*
X0074644Y0038330D02*
X0074644Y0039798D01*
X0075011Y0040165D01*
X0075745Y0040165D01*
X0076112Y0039798D01*
X0076854Y0040165D02*
X0076854Y0037963D01*
X0078322Y0037963D01*
X0079064Y0037963D02*
X0080532Y0037963D01*
X0079798Y0039064D02*
X0079064Y0039064D01*
X0079064Y0040165D02*
X0079064Y0037963D01*
X0079064Y0040165D02*
X0080532Y0040165D01*
X0076112Y0038330D02*
X0075745Y0037963D01*
X0075011Y0037963D01*
X0074644Y0038330D01*
X0076588Y0051063D02*
X0076588Y0053265D01*
X0077689Y0053265D01*
X0078056Y0052898D01*
X0078056Y0052164D01*
X0077689Y0051797D01*
X0076588Y0051797D01*
X0077322Y0051797D02*
X0078056Y0051063D01*
X0078798Y0051063D02*
X0080266Y0051063D01*
X0079532Y0052164D02*
X0078798Y0052164D01*
X0078798Y0053265D02*
X0078798Y0051063D01*
X0078798Y0053265D02*
X0080266Y0053265D01*
X0100358Y0057312D02*
X0100725Y0056945D01*
X0101459Y0056945D01*
X0101826Y0057312D01*
X0102568Y0056945D02*
X0104036Y0056945D01*
X0103302Y0058046D02*
X0102568Y0058046D01*
X0101826Y0058780D02*
X0101459Y0059147D01*
X0100725Y0059147D01*
X0100358Y0058780D01*
X0100358Y0057312D01*
X0102568Y0056945D02*
X0102568Y0059147D01*
X0104036Y0059147D01*
X0107778Y0050252D02*
X0107411Y0049885D01*
X0107778Y0050252D02*
X0108512Y0050252D01*
X0108879Y0049885D01*
X0108879Y0049518D01*
X0108512Y0049151D01*
X0108879Y0048784D01*
X0108879Y0048417D01*
X0108512Y0048050D01*
X0107778Y0048050D01*
X0107411Y0048417D01*
X0108145Y0049151D02*
X0108512Y0049151D01*
X0109621Y0048417D02*
X0109621Y0048050D01*
X0109988Y0048050D01*
X0109988Y0048417D01*
X0109621Y0048417D01*
X0110726Y0048417D02*
X0111093Y0048050D01*
X0111827Y0048050D01*
X0112194Y0048417D01*
X0112194Y0048784D01*
X0111827Y0049151D01*
X0111460Y0049151D01*
X0111827Y0049151D02*
X0112194Y0049518D01*
X0112194Y0049885D01*
X0111827Y0050252D01*
X0111093Y0050252D01*
X0110726Y0049885D01*
X0112936Y0049518D02*
X0113670Y0048050D01*
X0114404Y0049518D01*
X0096148Y0025156D02*
X0094680Y0025156D01*
X0094680Y0022954D01*
X0096148Y0022954D01*
X0095414Y0024055D02*
X0094680Y0024055D01*
X0093938Y0022954D02*
X0092470Y0022954D01*
X0092470Y0025156D01*
X0091728Y0024422D02*
X0091728Y0022954D01*
X0091728Y0024055D02*
X0090260Y0024055D01*
X0090260Y0024422D02*
X0090260Y0022954D01*
X0090260Y0024422D02*
X0090994Y0025156D01*
X0091728Y0024422D01*
X0087337Y0019456D02*
X0087704Y0019089D01*
X0087704Y0018355D01*
X0087337Y0017988D01*
X0086236Y0017988D01*
X0086236Y0017254D02*
X0086236Y0019456D01*
X0087337Y0019456D01*
X0085494Y0019456D02*
X0085494Y0017254D01*
X0084760Y0017988D01*
X0084026Y0017254D01*
X0084026Y0019456D01*
X0106211Y0017426D02*
X0106211Y0015959D01*
X0106578Y0015592D01*
X0107312Y0015592D01*
X0107679Y0015959D01*
X0107679Y0016693D01*
X0106945Y0016693D01*
X0106211Y0017426D02*
X0106578Y0017793D01*
X0107312Y0017793D01*
X0107679Y0017426D01*
X0108421Y0017793D02*
X0109889Y0015592D01*
X0109889Y0017793D01*
X0110631Y0017793D02*
X0111732Y0017793D01*
X0112099Y0017426D01*
X0112099Y0015959D01*
X0111732Y0015592D01*
X0110631Y0015592D01*
X0110631Y0017793D01*
X0108421Y0017793D02*
X0108421Y0015592D01*
X0016832Y0076499D02*
X0014963Y0076499D01*
X0016832Y0078367D01*
X0016832Y0078834D01*
X0016365Y0079301D01*
X0015431Y0079301D01*
X0014963Y0078834D01*
X0014069Y0078834D02*
X0013602Y0079301D01*
X0012668Y0079301D01*
X0012201Y0078834D01*
X0012201Y0076966D01*
X0012668Y0076499D01*
X0013602Y0076499D01*
X0014069Y0076966D01*
X0110666Y0102106D02*
X0111133Y0101639D01*
X0112067Y0101639D01*
X0112534Y0102106D01*
X0113428Y0101639D02*
X0115296Y0101639D01*
X0114362Y0101639D02*
X0114362Y0104441D01*
X0113428Y0103507D01*
X0112534Y0103974D02*
X0112067Y0104441D01*
X0111133Y0104441D01*
X0110666Y0103974D01*
X0110666Y0102106D01*
D11*
X0110722Y0070904D02*
X0109270Y0070904D01*
X0109270Y0068002D01*
X0109270Y0068969D02*
X0110722Y0068969D01*
X0111205Y0069453D01*
X0111205Y0070420D01*
X0110722Y0070904D01*
X0112217Y0070420D02*
X0112701Y0070904D01*
X0113668Y0070904D01*
X0114152Y0070420D01*
X0114152Y0069937D01*
X0113668Y0069453D01*
X0114152Y0068969D01*
X0114152Y0068485D01*
X0113668Y0068002D01*
X0112701Y0068002D01*
X0112217Y0068485D01*
X0111205Y0068002D02*
X0110238Y0068969D01*
X0113184Y0069453D02*
X0113668Y0069453D01*
X0064221Y0062302D02*
X0063737Y0062786D01*
X0062770Y0062786D01*
X0062286Y0062302D01*
X0061274Y0062302D02*
X0061274Y0061335D01*
X0060791Y0060851D01*
X0059339Y0060851D01*
X0059339Y0059884D02*
X0059339Y0062786D01*
X0060791Y0062786D01*
X0061274Y0062302D01*
X0060307Y0060851D02*
X0061274Y0059884D01*
X0062286Y0059884D02*
X0064221Y0061819D01*
X0064221Y0062302D01*
X0064221Y0059884D02*
X0062286Y0059884D01*
X0047946Y0059625D02*
X0046011Y0059625D01*
X0046979Y0059625D02*
X0046979Y0062527D01*
X0046011Y0061560D01*
X0045000Y0062043D02*
X0045000Y0061076D01*
X0044516Y0060592D01*
X0043065Y0060592D01*
X0044032Y0060592D02*
X0045000Y0059625D01*
X0043065Y0059625D02*
X0043065Y0062527D01*
X0044516Y0062527D01*
X0045000Y0062043D01*
X0052764Y0048214D02*
X0054699Y0048214D01*
X0053731Y0048214D02*
X0053731Y0045312D01*
X0055710Y0046763D02*
X0057645Y0046763D01*
X0058657Y0047247D02*
X0059624Y0048214D01*
X0059624Y0045312D01*
X0058657Y0045312D02*
X0060592Y0045312D01*
D12*
X0063206Y0014346D03*
X0056886Y0010506D03*
X0075486Y0010706D03*
X0101326Y0010506D03*
D13*
X0096926Y0010986D03*
X0083526Y0010986D03*
X0062926Y0010506D03*
D14*
X0062946Y0010586D03*
X0068346Y0010506D03*
X0087906Y0010746D03*
D15*
X0088506Y0010946D03*
X0079906Y0015586D03*
X0079746Y0015386D03*
X0079706Y0015346D03*
X0079546Y0015186D03*
X0079506Y0015146D03*
X0075146Y0015586D03*
X0075106Y0015546D03*
X0074546Y0014986D03*
X0074506Y0014946D03*
X0074346Y0014786D03*
X0074306Y0014746D03*
X0074146Y0014586D03*
X0074106Y0014546D03*
X0073946Y0014386D03*
X0073906Y0014346D03*
X0073746Y0014186D03*
X0073706Y0014146D03*
X0073546Y0013986D03*
X0073506Y0013946D03*
X0072146Y0010506D03*
X0067906Y0015386D03*
X0068106Y0015586D03*
X0067106Y0014586D03*
X0065546Y0015586D03*
X0065506Y0015546D03*
X0065346Y0015346D03*
X0065306Y0015306D03*
X0065146Y0015146D03*
X0065106Y0015106D03*
X0060706Y0015586D03*
X0060506Y0015386D03*
X0059506Y0014386D03*
X0059306Y0014186D03*
X0059506Y0012586D03*
X0058706Y0010946D03*
X0054746Y0015066D03*
X0054546Y0014866D03*
X0054346Y0014666D03*
X0054146Y0014466D03*
X0053946Y0014266D03*
X0053746Y0014066D03*
X0053546Y0013866D03*
X0053346Y0013666D03*
X0054946Y0015266D03*
X0055146Y0015466D03*
X0055346Y0015666D03*
X0055546Y0015866D03*
X0055746Y0016066D03*
X0055946Y0016266D03*
D16*
X0075666Y0010506D03*
D17*
X0079886Y0010506D03*
X0088046Y0011546D03*
X0088726Y0011946D03*
X0088926Y0012066D03*
X0089006Y0012106D03*
X0090486Y0012986D03*
X0093286Y0010506D03*
X0071166Y0012986D03*
X0069606Y0012066D03*
X0069446Y0011986D03*
X0069326Y0011906D03*
X0069246Y0011866D03*
X0069126Y0011786D03*
X0069046Y0011746D03*
X0068646Y0011506D03*
X0068446Y0011386D03*
X0067966Y0011106D03*
X0067766Y0010986D03*
X0052126Y0011786D03*
D18*
X0079926Y0010666D03*
X0080126Y0011066D03*
X0080326Y0011466D03*
X0084126Y0010506D03*
X0084926Y0012066D03*
X0085126Y0012466D03*
X0085326Y0012866D03*
X0093326Y0010666D03*
X0093526Y0011066D03*
X0093726Y0011466D03*
X0098326Y0012066D03*
X0098526Y0012466D03*
X0098726Y0012866D03*
D19*
X0087866Y0010706D03*
X0087666Y0010506D03*
X0068586Y0010746D03*
D20*
X0091426Y0010506D03*
D21*
X0093286Y0010586D03*
X0093366Y0010746D03*
X0093446Y0010906D03*
X0093486Y0010986D03*
X0093566Y0011146D03*
X0093646Y0011306D03*
X0093686Y0011386D03*
X0093766Y0011506D03*
X0093766Y0011546D03*
X0097486Y0010506D03*
X0098286Y0011986D03*
X0098366Y0012146D03*
X0098446Y0012306D03*
X0098486Y0012386D03*
X0098566Y0012546D03*
X0098646Y0012706D03*
X0098686Y0012786D03*
X0085366Y0012946D03*
X0085286Y0012786D03*
X0085246Y0012706D03*
X0085166Y0012546D03*
X0085086Y0012386D03*
X0085046Y0012306D03*
X0084966Y0012146D03*
X0084886Y0011986D03*
X0080366Y0011546D03*
X0080286Y0011386D03*
X0080246Y0011306D03*
X0080166Y0011146D03*
X0080086Y0010986D03*
X0080046Y0010906D03*
X0079966Y0010746D03*
X0079886Y0010586D03*
D22*
X0063286Y0014466D03*
X0057006Y0010546D03*
X0101486Y0010546D03*
D23*
X0062946Y0010546D03*
X0052346Y0013146D03*
D24*
X0068366Y0010546D03*
X0075486Y0010666D03*
X0087686Y0010546D03*
D25*
X0091346Y0010746D03*
X0091466Y0010546D03*
X0094946Y0012666D03*
X0081546Y0012666D03*
X0079306Y0014986D03*
X0075266Y0015666D03*
X0072146Y0010546D03*
X0060826Y0015666D03*
X0058706Y0016346D03*
D26*
X0075586Y0010546D03*
X0081906Y0012346D03*
X0087946Y0010786D03*
X0095306Y0012346D03*
D27*
X0093666Y0011346D03*
X0093626Y0011266D03*
X0093586Y0011186D03*
X0093466Y0010946D03*
X0093426Y0010866D03*
X0093386Y0010786D03*
X0093266Y0010546D03*
X0098386Y0012186D03*
X0098426Y0012266D03*
X0098466Y0012346D03*
X0098586Y0012586D03*
X0098626Y0012666D03*
X0098666Y0012746D03*
X0098786Y0012946D03*
X0098786Y0012986D03*
X0085386Y0012986D03*
X0085266Y0012746D03*
X0085226Y0012666D03*
X0085186Y0012586D03*
X0085066Y0012346D03*
X0085026Y0012266D03*
X0084986Y0012186D03*
X0080266Y0011346D03*
X0080226Y0011266D03*
X0080186Y0011186D03*
X0080066Y0010946D03*
X0080026Y0010866D03*
X0079986Y0010786D03*
X0079866Y0010546D03*
X0066066Y0012906D03*
X0065986Y0012746D03*
X0065866Y0012506D03*
X0065826Y0012386D03*
X0065786Y0012346D03*
X0065786Y0012306D03*
X0065666Y0012106D03*
X0065666Y0012066D03*
X0065626Y0011986D03*
X0065586Y0011946D03*
X0065586Y0011906D03*
X0065466Y0011706D03*
X0065386Y0011546D03*
X0065266Y0011386D03*
D28*
X0084026Y0010546D03*
D29*
X0097446Y0010546D03*
D30*
X0101566Y0010586D03*
X0077766Y0014546D03*
X0057086Y0010586D03*
D31*
X0052386Y0013386D03*
X0068426Y0010586D03*
D32*
X0071726Y0011146D03*
X0071926Y0010906D03*
X0071926Y0010866D03*
X0072126Y0010586D03*
X0079926Y0015666D03*
X0090526Y0011906D03*
X0090926Y0011346D03*
X0091126Y0011066D03*
X0091326Y0010786D03*
X0058526Y0016186D03*
X0058326Y0015986D03*
X0058126Y0015786D03*
X0057526Y0015186D03*
X0057326Y0014986D03*
X0057126Y0014786D03*
X0056926Y0014586D03*
X0056726Y0014386D03*
X0056526Y0014186D03*
X0056326Y0013986D03*
D33*
X0068526Y0010706D03*
X0075526Y0010586D03*
D34*
X0071066Y0012786D03*
X0083986Y0010586D03*
X0097386Y0010586D03*
X0052186Y0012106D03*
D35*
X0087746Y0010586D03*
D36*
X0090406Y0012066D03*
X0090486Y0011946D03*
X0090606Y0011786D03*
X0090686Y0011666D03*
X0090806Y0011506D03*
X0090846Y0011466D03*
X0090886Y0011386D03*
X0090966Y0011266D03*
X0091046Y0011186D03*
X0091086Y0011106D03*
X0091166Y0010986D03*
X0091206Y0010946D03*
X0091246Y0010906D03*
X0091246Y0010866D03*
X0091366Y0010706D03*
X0091406Y0010666D03*
X0091446Y0010586D03*
X0097086Y0010866D03*
X0083686Y0010866D03*
X0072086Y0010666D03*
X0072046Y0010706D03*
X0072006Y0010746D03*
X0072006Y0010786D03*
X0071886Y0010946D03*
X0071846Y0010986D03*
X0071806Y0011066D03*
X0071766Y0011106D03*
X0071686Y0011186D03*
X0071646Y0011266D03*
X0071566Y0011386D03*
X0071366Y0011666D03*
X0065566Y0015666D03*
X0064846Y0014946D03*
X0058646Y0016306D03*
X0058606Y0016266D03*
X0058486Y0016146D03*
X0058446Y0016106D03*
X0058406Y0016066D03*
X0058286Y0015946D03*
X0058246Y0015906D03*
X0058206Y0015866D03*
X0057686Y0015346D03*
X0057646Y0015306D03*
X0057606Y0015266D03*
X0057486Y0015146D03*
X0057446Y0015106D03*
X0057406Y0015066D03*
X0057286Y0014946D03*
X0057246Y0014906D03*
X0057206Y0014866D03*
X0057086Y0014746D03*
X0057046Y0014706D03*
X0057006Y0014666D03*
X0056886Y0014546D03*
X0056846Y0014506D03*
X0056806Y0014466D03*
X0056686Y0014346D03*
X0056646Y0014306D03*
X0056606Y0014266D03*
X0056486Y0014146D03*
X0056446Y0014106D03*
X0056406Y0014066D03*
X0056286Y0013946D03*
X0056246Y0013906D03*
X0056206Y0013866D03*
D37*
X0057126Y0010627D03*
D38*
X0062986Y0010627D03*
D39*
X0068446Y0010627D03*
X0087766Y0010627D03*
D40*
X0091426Y0010627D03*
X0079906Y0015627D03*
X0072106Y0010627D03*
X0056146Y0013827D03*
X0052266Y0012627D03*
D41*
X0075526Y0010627D03*
D42*
X0079906Y0010627D03*
X0080106Y0011027D03*
X0080306Y0011427D03*
X0084906Y0012027D03*
X0085106Y0012427D03*
X0085306Y0012827D03*
X0093306Y0010627D03*
X0093506Y0011027D03*
X0093706Y0011427D03*
X0098306Y0012027D03*
X0098506Y0012427D03*
X0098706Y0012827D03*
X0065746Y0012227D03*
X0065546Y0011827D03*
D43*
X0083946Y0010627D03*
X0097346Y0010627D03*
D44*
X0101606Y0010627D03*
D45*
X0101686Y0010666D03*
X0057206Y0010666D03*
D46*
X0052386Y0013466D03*
X0062986Y0010666D03*
X0075466Y0010746D03*
D47*
X0077626Y0014346D03*
X0070386Y0014386D03*
X0068506Y0010666D03*
X0087826Y0010666D03*
D48*
X0083886Y0010666D03*
X0071006Y0012666D03*
X0052206Y0012266D03*
X0097286Y0010666D03*
D49*
X0057246Y0010706D03*
D50*
X0052406Y0013546D03*
X0063246Y0014386D03*
X0063006Y0010706D03*
X0082086Y0012186D03*
X0095486Y0012186D03*
D51*
X0093546Y0011106D03*
X0093346Y0010706D03*
X0098346Y0012106D03*
X0098546Y0012506D03*
X0098746Y0012906D03*
X0085346Y0012906D03*
X0085146Y0012506D03*
X0084946Y0012106D03*
X0080346Y0011506D03*
X0080146Y0011106D03*
X0079946Y0010706D03*
X0071146Y0012946D03*
X0066106Y0012986D03*
X0065946Y0012666D03*
X0065906Y0012586D03*
X0065746Y0012266D03*
X0065706Y0012186D03*
X0065706Y0012146D03*
X0065546Y0011866D03*
X0065506Y0011786D03*
X0065506Y0011746D03*
X0065346Y0011506D03*
X0064946Y0011066D03*
X0052146Y0011866D03*
D52*
X0052206Y0012346D03*
X0056206Y0013786D03*
X0070966Y0012586D03*
X0083846Y0010706D03*
X0097246Y0010706D03*
D53*
X0101726Y0010706D03*
X0101766Y0010746D03*
X0102766Y0012786D03*
X0082966Y0011506D03*
X0063126Y0010946D03*
X0058286Y0012786D03*
D54*
X0058306Y0012746D03*
X0057306Y0010746D03*
X0063346Y0014586D03*
X0096346Y0011506D03*
X0102786Y0012746D03*
D55*
X0102666Y0012986D03*
X0063026Y0010746D03*
X0058186Y0012986D03*
D56*
X0056966Y0012586D03*
X0056886Y0012466D03*
X0056846Y0012386D03*
X0056846Y0012346D03*
X0056806Y0012306D03*
X0056806Y0012266D03*
X0056766Y0012186D03*
X0056686Y0012066D03*
X0056646Y0011986D03*
X0056646Y0011946D03*
X0056606Y0011906D03*
X0056606Y0011866D03*
X0056566Y0011786D03*
X0056486Y0011666D03*
X0056446Y0011586D03*
X0056406Y0011506D03*
X0056406Y0011466D03*
X0056366Y0011386D03*
X0056286Y0011266D03*
X0056246Y0011186D03*
X0056246Y0011146D03*
X0056206Y0011106D03*
X0056206Y0011066D03*
X0059686Y0012346D03*
X0059686Y0012386D03*
X0061966Y0011546D03*
X0061886Y0011346D03*
X0061886Y0011306D03*
X0061886Y0011266D03*
X0078766Y0012466D03*
X0083806Y0010746D03*
X0097206Y0010746D03*
X0100646Y0010986D03*
X0100686Y0011066D03*
X0100686Y0011106D03*
X0100766Y0011266D03*
X0100806Y0011306D03*
X0100806Y0011346D03*
X0100846Y0011386D03*
X0100886Y0011466D03*
X0100886Y0011506D03*
X0100966Y0011666D03*
X0101006Y0011706D03*
X0101006Y0011746D03*
X0101046Y0011786D03*
X0101086Y0011866D03*
X0101086Y0011906D03*
X0101166Y0012066D03*
X0101206Y0012106D03*
X0101206Y0012146D03*
X0101246Y0012186D03*
X0101286Y0012266D03*
X0101286Y0012306D03*
X0101366Y0012466D03*
X0101406Y0012506D03*
X0101406Y0012546D03*
X0101446Y0012586D03*
X0104166Y0012386D03*
X0104166Y0012346D03*
X0104166Y0012306D03*
D57*
X0101806Y0010786D03*
X0095726Y0011986D03*
X0082326Y0011986D03*
X0077806Y0014666D03*
X0057326Y0010786D03*
D58*
X0063066Y0010786D03*
X0077746Y0014506D03*
D59*
X0068626Y0010786D03*
D60*
X0075466Y0010786D03*
D61*
X0077246Y0013986D03*
X0077166Y0014066D03*
X0077126Y0014106D03*
X0070926Y0012506D03*
X0058806Y0016386D03*
X0052246Y0012506D03*
X0051446Y0013666D03*
X0051406Y0013706D03*
X0051366Y0013746D03*
X0051286Y0013866D03*
X0051246Y0013946D03*
X0051206Y0013986D03*
X0051166Y0014066D03*
X0051126Y0014106D03*
X0051086Y0014186D03*
X0051006Y0014266D03*
X0051006Y0014306D03*
X0050966Y0014346D03*
X0050926Y0014386D03*
X0050886Y0014466D03*
X0050846Y0014506D03*
X0050846Y0014546D03*
X0050806Y0014586D03*
X0050766Y0014666D03*
X0050726Y0014706D03*
X0050686Y0014746D03*
X0050566Y0014946D03*
X0050526Y0014986D03*
X0050486Y0015066D03*
X0050446Y0015106D03*
X0050406Y0015186D03*
X0050326Y0015266D03*
X0050326Y0015306D03*
X0050286Y0015346D03*
X0050246Y0015386D03*
X0050206Y0015466D03*
X0050166Y0015506D03*
X0050126Y0015586D03*
X0050046Y0015666D03*
X0050046Y0015706D03*
X0050006Y0015746D03*
X0049966Y0015786D03*
X0049926Y0015866D03*
X0049886Y0015906D03*
X0049846Y0015986D03*
X0049766Y0016106D03*
X0049726Y0016146D03*
X0049646Y0016266D03*
X0083766Y0010786D03*
X0097166Y0010786D03*
D62*
X0101866Y0010827D03*
X0063346Y0014627D03*
X0057386Y0010827D03*
D63*
X0063066Y0010827D03*
D64*
X0068686Y0010827D03*
X0088006Y0010827D03*
D65*
X0091006Y0011227D03*
X0091166Y0011027D03*
X0091286Y0010827D03*
X0071966Y0010827D03*
X0071806Y0011027D03*
X0071686Y0011227D03*
X0058566Y0016227D03*
X0058366Y0016027D03*
X0058166Y0015827D03*
X0057566Y0015227D03*
X0057366Y0015027D03*
X0057166Y0014827D03*
X0056966Y0014627D03*
X0056766Y0014427D03*
X0056566Y0014227D03*
X0056366Y0014027D03*
D66*
X0075446Y0010827D03*
D67*
X0080006Y0010827D03*
X0080206Y0011227D03*
X0085006Y0012227D03*
X0085206Y0012627D03*
X0093406Y0010827D03*
X0093606Y0011227D03*
X0098406Y0012227D03*
X0098606Y0012627D03*
X0064886Y0011027D03*
D68*
X0067146Y0014627D03*
X0067946Y0015427D03*
X0068146Y0015627D03*
X0060546Y0015427D03*
X0059546Y0014427D03*
X0059346Y0014227D03*
X0055906Y0016227D03*
X0055706Y0016027D03*
X0055506Y0015827D03*
X0055306Y0015627D03*
X0055106Y0015427D03*
X0054906Y0015227D03*
X0054706Y0015027D03*
X0054506Y0014827D03*
X0054306Y0014627D03*
X0054106Y0014427D03*
X0053906Y0014227D03*
X0053706Y0014027D03*
X0053506Y0013827D03*
X0083706Y0010827D03*
X0097106Y0010827D03*
D69*
X0077806Y0014706D03*
X0057446Y0010906D03*
X0057406Y0010866D03*
D70*
X0063086Y0010866D03*
D71*
X0068706Y0010866D03*
X0077546Y0014306D03*
X0083346Y0011146D03*
X0096746Y0011146D03*
X0052346Y0013186D03*
D72*
X0075466Y0010906D03*
X0075466Y0010866D03*
X0077706Y0014466D03*
X0083146Y0011346D03*
X0096546Y0011346D03*
D73*
X0088026Y0010866D03*
D74*
X0101886Y0010866D03*
D75*
X0102746Y0012866D03*
X0096386Y0011466D03*
X0082986Y0011466D03*
X0077786Y0014586D03*
X0063106Y0010906D03*
X0058266Y0012866D03*
D76*
X0068766Y0010906D03*
X0088086Y0010906D03*
D77*
X0083626Y0010906D03*
X0097026Y0010906D03*
X0067026Y0014386D03*
D78*
X0101946Y0010906D03*
D79*
X0103506Y0011106D03*
X0103546Y0011146D03*
X0103706Y0011346D03*
X0104146Y0012266D03*
X0104146Y0012466D03*
X0104146Y0012506D03*
X0078706Y0012506D03*
X0074506Y0011466D03*
X0070946Y0012546D03*
X0062546Y0012746D03*
X0062506Y0012666D03*
X0062346Y0012346D03*
X0062306Y0012266D03*
X0062146Y0011946D03*
X0062106Y0011866D03*
X0061946Y0011506D03*
X0061906Y0011386D03*
X0059106Y0011186D03*
X0056146Y0010986D03*
X0056146Y0010946D03*
D80*
X0065086Y0011186D03*
X0065166Y0011266D03*
X0065326Y0011466D03*
X0065886Y0012546D03*
X0065966Y0012706D03*
X0066086Y0012946D03*
X0067726Y0010946D03*
X0087366Y0011146D03*
X0090486Y0012946D03*
D81*
X0090546Y0011866D03*
X0090746Y0011586D03*
X0090946Y0011306D03*
X0071506Y0011466D03*
X0071346Y0011706D03*
X0071306Y0011746D03*
X0071146Y0011946D03*
X0071146Y0011986D03*
X0069146Y0010946D03*
X0058106Y0015746D03*
X0057946Y0015586D03*
X0057906Y0015546D03*
X0057746Y0015386D03*
D82*
X0052406Y0013586D03*
X0075446Y0010946D03*
D83*
X0083586Y0010946D03*
X0096986Y0010946D03*
D84*
X0087046Y0010946D03*
X0066046Y0012866D03*
X0066006Y0012786D03*
X0065846Y0012466D03*
X0065446Y0011666D03*
X0065406Y0011586D03*
X0065246Y0011346D03*
X0065206Y0011306D03*
X0065046Y0011146D03*
X0065006Y0011106D03*
D85*
X0062426Y0012506D03*
X0062466Y0012586D03*
X0062626Y0012906D03*
X0062666Y0012946D03*
X0062666Y0012986D03*
X0062266Y0012186D03*
X0062226Y0012106D03*
X0062066Y0011786D03*
X0062066Y0011746D03*
X0062026Y0011706D03*
X0062026Y0011666D03*
X0061986Y0011586D03*
X0059666Y0012266D03*
X0059666Y0012306D03*
X0059666Y0012466D03*
X0059666Y0012506D03*
X0059226Y0011346D03*
X0059066Y0011146D03*
X0059026Y0011106D03*
X0058986Y0011066D03*
X0056426Y0011546D03*
X0074426Y0011186D03*
X0074426Y0011146D03*
X0074426Y0011106D03*
X0074466Y0011266D03*
X0074466Y0011306D03*
X0074466Y0011346D03*
X0090266Y0012546D03*
X0100626Y0010946D03*
X0103466Y0011066D03*
X0103586Y0011186D03*
D86*
X0103186Y0010946D03*
X0079866Y0015546D03*
X0079666Y0015306D03*
X0079626Y0015266D03*
X0079466Y0015106D03*
X0074466Y0014906D03*
X0074426Y0014866D03*
X0074266Y0014706D03*
X0074226Y0014666D03*
X0074066Y0014506D03*
X0074026Y0014466D03*
X0073866Y0014306D03*
X0073826Y0014266D03*
X0073666Y0014106D03*
X0073626Y0014066D03*
X0068226Y0015706D03*
X0068186Y0015666D03*
X0068066Y0015546D03*
X0068026Y0015506D03*
X0067986Y0015466D03*
X0067266Y0014746D03*
X0067226Y0014706D03*
X0067186Y0014666D03*
X0067066Y0014546D03*
X0067026Y0014506D03*
X0065466Y0015506D03*
X0065386Y0015386D03*
X0065266Y0015266D03*
X0065186Y0015186D03*
X0060666Y0015546D03*
X0060626Y0015506D03*
X0060586Y0015466D03*
X0060466Y0015346D03*
X0059626Y0014506D03*
X0059586Y0014466D03*
X0059466Y0014346D03*
X0059426Y0014306D03*
X0059386Y0014266D03*
X0059266Y0014146D03*
X0059226Y0014106D03*
X0059186Y0014066D03*
X0059026Y0013946D03*
X0058986Y0013906D03*
X0056026Y0016346D03*
X0055986Y0016306D03*
X0055866Y0016186D03*
X0055826Y0016146D03*
X0055786Y0016106D03*
X0055666Y0015986D03*
X0055626Y0015946D03*
X0055586Y0015906D03*
X0055466Y0015786D03*
X0055426Y0015746D03*
X0055386Y0015706D03*
X0055266Y0015586D03*
X0055226Y0015546D03*
X0055186Y0015506D03*
X0055066Y0015386D03*
X0055026Y0015346D03*
X0054986Y0015306D03*
X0054866Y0015186D03*
X0054826Y0015146D03*
X0054786Y0015106D03*
X0054666Y0014986D03*
X0054626Y0014946D03*
X0054586Y0014906D03*
X0054466Y0014786D03*
X0054426Y0014746D03*
X0054386Y0014706D03*
X0054266Y0014586D03*
X0054226Y0014546D03*
X0054186Y0014506D03*
X0054066Y0014386D03*
X0054026Y0014346D03*
X0053986Y0014306D03*
X0053866Y0014186D03*
X0053826Y0014146D03*
X0053786Y0014106D03*
X0053666Y0013986D03*
X0053626Y0013946D03*
X0053586Y0013906D03*
X0053466Y0013786D03*
X0053426Y0013746D03*
X0053386Y0013706D03*
D87*
X0052226Y0012466D03*
X0050626Y0014866D03*
X0050426Y0015146D03*
X0049626Y0016306D03*
X0058826Y0010986D03*
X0059426Y0011666D03*
X0074626Y0011746D03*
X0074826Y0012146D03*
X0075026Y0012546D03*
X0075226Y0012946D03*
X0077426Y0013786D03*
X0077626Y0013586D03*
X0077826Y0013386D03*
X0078026Y0013186D03*
X0078226Y0012986D03*
X0078426Y0012786D03*
X0104026Y0011906D03*
D88*
X0103966Y0011786D03*
X0103926Y0011706D03*
X0103726Y0011386D03*
X0103686Y0011306D03*
X0103326Y0010986D03*
X0104086Y0012066D03*
X0104086Y0012106D03*
X0104126Y0012146D03*
X0104126Y0012186D03*
X0075126Y0012746D03*
X0075086Y0012666D03*
X0074926Y0012346D03*
X0074886Y0012266D03*
X0074726Y0011946D03*
X0074686Y0011866D03*
X0074566Y0011586D03*
X0074526Y0011546D03*
X0074526Y0011506D03*
X0074486Y0011386D03*
X0062566Y0012786D03*
X0062526Y0012706D03*
X0062366Y0012386D03*
X0062326Y0012306D03*
X0062166Y0011986D03*
X0062126Y0011906D03*
X0061926Y0010986D03*
X0059566Y0011986D03*
X0059486Y0011786D03*
X0059366Y0011546D03*
X0059326Y0011506D03*
X0059166Y0011266D03*
D89*
X0064806Y0010986D03*
D90*
X0059546Y0011906D03*
X0059546Y0011946D03*
X0059506Y0011866D03*
X0059466Y0011746D03*
X0059386Y0011586D03*
X0059306Y0011466D03*
X0051346Y0013786D03*
X0051266Y0013906D03*
X0051106Y0014146D03*
X0050666Y0014786D03*
X0050586Y0014906D03*
X0050146Y0015546D03*
X0049866Y0015946D03*
X0049786Y0016066D03*
X0049706Y0016186D03*
X0049586Y0016346D03*
X0049586Y0016386D03*
X0074506Y0010986D03*
X0074706Y0011906D03*
X0074746Y0011986D03*
X0074786Y0012066D03*
X0074906Y0012306D03*
X0074946Y0012386D03*
X0074986Y0012466D03*
X0075106Y0012706D03*
X0075146Y0012786D03*
X0075186Y0012866D03*
X0077066Y0014186D03*
X0077106Y0014146D03*
X0077266Y0013946D03*
X0077306Y0013906D03*
X0077346Y0013866D03*
X0077466Y0013746D03*
X0077506Y0013706D03*
X0077546Y0013666D03*
X0077666Y0013546D03*
X0077706Y0013506D03*
X0077746Y0013466D03*
X0077866Y0013346D03*
X0077906Y0013306D03*
X0077946Y0013266D03*
X0078066Y0013146D03*
X0078106Y0013106D03*
X0078146Y0013066D03*
X0078266Y0012946D03*
X0078306Y0012906D03*
X0078346Y0012866D03*
X0078466Y0012746D03*
X0078506Y0012706D03*
X0078546Y0012666D03*
X0081466Y0012746D03*
X0090266Y0012506D03*
X0094866Y0012746D03*
X0103786Y0011466D03*
X0103866Y0011586D03*
X0103906Y0011666D03*
X0103946Y0011746D03*
X0104106Y0012546D03*
D91*
X0088786Y0011986D03*
X0088666Y0011906D03*
X0088586Y0011866D03*
X0088466Y0011786D03*
X0088386Y0011746D03*
X0088306Y0011706D03*
X0088266Y0011666D03*
X0088106Y0011586D03*
X0087986Y0011506D03*
X0087906Y0011466D03*
X0087786Y0011386D03*
X0087706Y0011346D03*
X0087586Y0011266D03*
X0087306Y0011106D03*
X0087106Y0010986D03*
X0069386Y0011946D03*
X0068986Y0011706D03*
X0068906Y0011666D03*
X0068786Y0011586D03*
X0068706Y0011546D03*
X0068586Y0011466D03*
X0068386Y0011346D03*
X0068306Y0011306D03*
X0068106Y0011186D03*
X0067906Y0011066D03*
D92*
X0061886Y0011027D03*
X0059686Y0012427D03*
X0056886Y0012427D03*
X0056766Y0012227D03*
X0056686Y0012027D03*
X0056566Y0011827D03*
X0056366Y0011427D03*
X0056286Y0011227D03*
X0056166Y0011027D03*
X0100646Y0011027D03*
X0100766Y0011227D03*
X0100846Y0011427D03*
X0100966Y0011627D03*
X0101046Y0011827D03*
X0101166Y0012027D03*
X0101246Y0012227D03*
X0101366Y0012427D03*
X0104166Y0012427D03*
D93*
X0104086Y0012027D03*
X0103886Y0011627D03*
X0103766Y0011427D03*
X0075166Y0012827D03*
X0074966Y0012427D03*
X0074766Y0012027D03*
X0074566Y0011627D03*
X0074486Y0011427D03*
X0062486Y0012627D03*
X0062286Y0012227D03*
X0062086Y0011827D03*
X0059286Y0011427D03*
X0058926Y0011027D03*
D94*
X0067826Y0011027D03*
X0087826Y0011427D03*
D95*
X0075266Y0013027D03*
X0074426Y0011227D03*
X0074466Y0011027D03*
X0062586Y0012827D03*
X0062386Y0012427D03*
X0062186Y0012027D03*
X0061986Y0011627D03*
X0059666Y0012227D03*
X0056466Y0011627D03*
X0052226Y0012427D03*
X0103386Y0011027D03*
X0103626Y0011227D03*
D96*
X0096906Y0011027D03*
X0083506Y0011027D03*
D97*
X0087166Y0011027D03*
X0065926Y0012627D03*
X0065286Y0011427D03*
X0065126Y0011227D03*
X0052126Y0011827D03*
D98*
X0052226Y0012386D03*
X0061866Y0011186D03*
X0061866Y0011146D03*
X0061866Y0011106D03*
X0061866Y0011066D03*
X0074426Y0011066D03*
X0081426Y0012786D03*
X0090306Y0012586D03*
X0094826Y0012786D03*
D99*
X0096846Y0011066D03*
X0083446Y0011066D03*
X0077446Y0014266D03*
D100*
X0068226Y0011266D03*
X0068026Y0011146D03*
X0087226Y0011066D03*
X0087426Y0011186D03*
X0087626Y0011306D03*
D101*
X0083406Y0011106D03*
X0096806Y0011106D03*
D102*
X0091066Y0011146D03*
X0090786Y0011546D03*
X0090666Y0011706D03*
X0090626Y0011746D03*
X0090466Y0011986D03*
X0090386Y0012106D03*
X0090186Y0012386D03*
X0079226Y0014946D03*
X0071626Y0011306D03*
X0071586Y0011346D03*
X0071466Y0011506D03*
X0071466Y0011546D03*
X0071426Y0011586D03*
X0071266Y0011786D03*
X0071226Y0011866D03*
X0071186Y0011906D03*
X0071066Y0012066D03*
X0070866Y0012386D03*
X0058066Y0015706D03*
X0058026Y0015666D03*
X0057866Y0015506D03*
X0057826Y0015466D03*
X0052266Y0012666D03*
D103*
X0056326Y0011346D03*
X0056326Y0011306D03*
X0056526Y0011706D03*
X0056526Y0011746D03*
X0056726Y0012106D03*
X0056726Y0012146D03*
X0056926Y0012506D03*
X0056926Y0012546D03*
X0061926Y0011466D03*
X0100726Y0011186D03*
X0100726Y0011146D03*
X0100926Y0011546D03*
X0100926Y0011586D03*
X0101126Y0011946D03*
X0101126Y0011986D03*
X0101326Y0012346D03*
X0101326Y0012386D03*
D104*
X0096726Y0011186D03*
X0083326Y0011186D03*
X0052366Y0013266D03*
D105*
X0059146Y0011227D03*
X0104146Y0012227D03*
D106*
X0061866Y0011227D03*
D107*
X0068186Y0011227D03*
X0068506Y0011427D03*
X0069186Y0011827D03*
X0087506Y0011227D03*
X0088186Y0011627D03*
X0088866Y0012027D03*
D108*
X0083266Y0011227D03*
X0096666Y0011227D03*
D109*
X0096626Y0011266D03*
X0083226Y0011266D03*
D110*
X0078646Y0012546D03*
X0078606Y0012586D03*
X0075246Y0012986D03*
X0075206Y0012906D03*
X0075046Y0012586D03*
X0075006Y0012506D03*
X0074846Y0012186D03*
X0074806Y0012106D03*
X0074646Y0011786D03*
X0074606Y0011706D03*
X0074606Y0011666D03*
X0062606Y0012866D03*
X0062446Y0012546D03*
X0062406Y0012466D03*
X0062246Y0012146D03*
X0062206Y0012066D03*
X0059646Y0012146D03*
X0059646Y0012186D03*
X0059606Y0012106D03*
X0059606Y0012066D03*
X0059446Y0011706D03*
X0059246Y0011386D03*
X0059206Y0011306D03*
X0059606Y0012546D03*
X0103646Y0011266D03*
X0103806Y0011506D03*
X0103846Y0011546D03*
X0104006Y0011866D03*
X0104046Y0011946D03*
X0104046Y0011986D03*
D111*
X0096566Y0011306D03*
X0083166Y0011306D03*
D112*
X0083086Y0011386D03*
X0096486Y0011386D03*
D113*
X0061926Y0011427D03*
D114*
X0071106Y0012027D03*
X0071546Y0011427D03*
D115*
X0083046Y0011427D03*
X0096446Y0011427D03*
D116*
X0090866Y0011427D03*
X0090586Y0011827D03*
X0090426Y0012027D03*
X0071386Y0011627D03*
X0071266Y0011827D03*
X0057986Y0015627D03*
X0057786Y0015427D03*
D117*
X0052066Y0011466D03*
D118*
X0052086Y0011506D03*
D119*
X0052086Y0011546D03*
D120*
X0058306Y0012666D03*
X0058306Y0012706D03*
X0082906Y0011546D03*
X0096306Y0011546D03*
X0102786Y0012666D03*
X0102786Y0012706D03*
D121*
X0052086Y0011586D03*
D122*
X0082546Y0011586D03*
X0082586Y0011666D03*
X0082586Y0011706D03*
X0082666Y0011866D03*
X0082706Y0011906D03*
X0082706Y0011946D03*
X0095946Y0011586D03*
X0095986Y0011666D03*
X0095986Y0011706D03*
X0096066Y0011866D03*
X0096106Y0011906D03*
X0096106Y0011946D03*
D123*
X0052106Y0011627D03*
D124*
X0059406Y0011627D03*
D125*
X0065426Y0011627D03*
X0065626Y0012027D03*
X0065826Y0012427D03*
X0066026Y0012827D03*
D126*
X0066086Y0013027D03*
X0068846Y0011627D03*
X0069526Y0012027D03*
X0088526Y0011827D03*
D127*
X0082666Y0011827D03*
X0082546Y0011627D03*
X0095946Y0011627D03*
X0096066Y0011827D03*
D128*
X0090726Y0011627D03*
X0063326Y0016427D03*
D129*
X0052106Y0011666D03*
D130*
X0052106Y0011706D03*
D131*
X0052126Y0011746D03*
D132*
X0082626Y0011746D03*
X0082626Y0011786D03*
X0096026Y0011786D03*
X0096026Y0011746D03*
D133*
X0103986Y0011827D03*
X0078586Y0012627D03*
X0078386Y0012827D03*
X0078186Y0013027D03*
X0077986Y0013227D03*
X0077786Y0013427D03*
X0077586Y0013627D03*
X0077386Y0013827D03*
X0075066Y0012627D03*
X0074866Y0012227D03*
X0074666Y0011827D03*
X0073346Y0013827D03*
X0059586Y0012027D03*
X0059506Y0011827D03*
X0050506Y0015027D03*
D134*
X0052146Y0011906D03*
X0090466Y0012906D03*
D135*
X0052146Y0011946D03*
D136*
X0052166Y0011986D03*
X0071086Y0012866D03*
D137*
X0071086Y0012827D03*
X0052166Y0012027D03*
X0090406Y0012827D03*
D138*
X0095666Y0012027D03*
X0082266Y0012027D03*
X0077786Y0014627D03*
D139*
X0052166Y0012066D03*
D140*
X0058266Y0012906D03*
X0082226Y0012066D03*
X0095626Y0012066D03*
D141*
X0070726Y0012106D03*
X0052326Y0013066D03*
D142*
X0082186Y0012106D03*
X0095586Y0012106D03*
X0102706Y0012946D03*
D143*
X0090386Y0012746D03*
X0081266Y0012906D03*
X0052186Y0012146D03*
D144*
X0052306Y0012986D03*
X0070746Y0012146D03*
X0081786Y0012466D03*
X0090066Y0012146D03*
X0095186Y0012466D03*
D145*
X0095546Y0012146D03*
X0082146Y0012146D03*
D146*
X0071026Y0012706D03*
X0052186Y0012186D03*
D147*
X0070766Y0012186D03*
X0081726Y0012506D03*
X0090086Y0012186D03*
X0095126Y0012506D03*
D148*
X0052186Y0012227D03*
D149*
X0070786Y0012227D03*
D150*
X0082046Y0012227D03*
X0095446Y0012227D03*
D151*
X0090126Y0012227D03*
D152*
X0095086Y0012546D03*
X0081686Y0012546D03*
X0070806Y0012266D03*
D153*
X0082006Y0012266D03*
X0095406Y0012266D03*
D154*
X0090126Y0012266D03*
D155*
X0052206Y0012306D03*
D156*
X0070826Y0012306D03*
D157*
X0081966Y0012306D03*
X0095366Y0012306D03*
X0052366Y0013306D03*
D158*
X0090146Y0012306D03*
D159*
X0070846Y0012346D03*
X0065526Y0015706D03*
X0052286Y0012746D03*
D160*
X0052266Y0012706D03*
X0079146Y0014906D03*
X0090186Y0012346D03*
D161*
X0095266Y0012386D03*
X0081866Y0012386D03*
X0062986Y0014266D03*
D162*
X0065006Y0015027D03*
X0065566Y0015627D03*
X0066966Y0014427D03*
X0070886Y0012427D03*
X0075206Y0015627D03*
X0079366Y0015027D03*
X0090206Y0012427D03*
X0060766Y0015627D03*
D163*
X0070986Y0012627D03*
X0078826Y0012427D03*
D164*
X0081826Y0012427D03*
X0095226Y0012427D03*
D165*
X0074926Y0015386D03*
X0074886Y0015346D03*
X0074726Y0015186D03*
X0074686Y0015146D03*
X0070926Y0012466D03*
X0060366Y0015266D03*
X0060286Y0015186D03*
X0060166Y0015066D03*
X0060086Y0014986D03*
X0059966Y0014866D03*
X0059886Y0014786D03*
X0059766Y0014666D03*
X0059686Y0014586D03*
X0059086Y0013986D03*
D166*
X0059646Y0014546D03*
X0059806Y0014706D03*
X0059846Y0014746D03*
X0060006Y0014906D03*
X0060046Y0014946D03*
X0060206Y0015106D03*
X0060246Y0015146D03*
X0060406Y0015306D03*
X0065446Y0015466D03*
X0073446Y0013906D03*
X0074606Y0015066D03*
X0074646Y0015106D03*
X0074806Y0015266D03*
X0074846Y0015306D03*
X0075006Y0015466D03*
X0075046Y0015506D03*
X0079806Y0015466D03*
X0079846Y0015506D03*
X0090246Y0012466D03*
X0104006Y0012586D03*
X0052246Y0012546D03*
D167*
X0052246Y0012586D03*
X0065046Y0015066D03*
X0067006Y0014466D03*
X0068286Y0015746D03*
X0079406Y0015066D03*
D168*
X0079006Y0014866D03*
X0079806Y0015706D03*
X0081646Y0012586D03*
X0075446Y0015706D03*
X0064646Y0014866D03*
X0061006Y0015706D03*
X0095046Y0012586D03*
D169*
X0058306Y0012627D03*
D170*
X0081606Y0012627D03*
X0095006Y0012627D03*
D171*
X0094766Y0012827D03*
X0090326Y0012627D03*
X0081366Y0012827D03*
D172*
X0102786Y0012627D03*
D173*
X0090346Y0012666D03*
D174*
X0094906Y0012706D03*
X0081506Y0012706D03*
X0073386Y0013866D03*
X0058946Y0013866D03*
X0056066Y0016386D03*
D175*
X0058926Y0013786D03*
X0081326Y0012866D03*
X0090366Y0012706D03*
X0094726Y0012866D03*
D176*
X0094686Y0012906D03*
X0071046Y0012746D03*
D177*
X0052286Y0012786D03*
D178*
X0081246Y0012946D03*
X0090406Y0012786D03*
X0094646Y0012946D03*
D179*
X0052286Y0012827D03*
D180*
X0058286Y0012827D03*
X0102766Y0012827D03*
D181*
X0052286Y0012866D03*
D182*
X0090446Y0012866D03*
D183*
X0052306Y0012906D03*
D184*
X0071126Y0012906D03*
D185*
X0063306Y0014506D03*
X0102746Y0012906D03*
D186*
X0052306Y0012946D03*
D187*
X0058226Y0012946D03*
D188*
X0081186Y0012986D03*
X0094586Y0012986D03*
D189*
X0052326Y0013027D03*
D190*
X0058126Y0013027D03*
X0077686Y0014427D03*
D191*
X0062646Y0013027D03*
D192*
X0071186Y0013027D03*
D193*
X0081126Y0013027D03*
D194*
X0085406Y0013027D03*
X0098806Y0013027D03*
D195*
X0090546Y0013027D03*
D196*
X0094566Y0013027D03*
D197*
X0102606Y0013027D03*
D198*
X0052326Y0013106D03*
D199*
X0052346Y0013227D03*
D200*
X0052366Y0013346D03*
D201*
X0052386Y0013427D03*
D202*
X0052406Y0013506D03*
D203*
X0052426Y0013627D03*
X0063266Y0014427D03*
D204*
X0068746Y0013786D03*
D205*
X0073286Y0013786D03*
D206*
X0077206Y0014027D03*
X0058886Y0013827D03*
X0051326Y0013827D03*
X0051206Y0014027D03*
X0051046Y0014227D03*
X0050926Y0014427D03*
X0050766Y0014627D03*
X0050646Y0014827D03*
X0050366Y0015227D03*
X0050086Y0015627D03*
X0049966Y0015827D03*
X0049806Y0016027D03*
X0049686Y0016227D03*
D207*
X0068726Y0013827D03*
D208*
X0068746Y0013866D03*
D209*
X0068766Y0013906D03*
X0063566Y0016346D03*
X0078006Y0016346D03*
D210*
X0071146Y0016306D03*
X0068786Y0013946D03*
D211*
X0068786Y0013986D03*
X0077986Y0016306D03*
D212*
X0074966Y0015427D03*
X0074766Y0015227D03*
X0074566Y0015027D03*
X0060326Y0015227D03*
X0060126Y0015027D03*
X0059926Y0014827D03*
X0059726Y0014627D03*
X0059126Y0014027D03*
D213*
X0068806Y0014027D03*
D214*
X0065426Y0015427D03*
X0065226Y0015227D03*
X0073586Y0014027D03*
X0073786Y0014227D03*
X0073986Y0014427D03*
X0074186Y0014627D03*
X0074386Y0014827D03*
X0079586Y0015227D03*
X0079786Y0015427D03*
D215*
X0068826Y0014066D03*
D216*
X0068846Y0014106D03*
X0068886Y0014146D03*
X0070446Y0015786D03*
X0070806Y0016066D03*
X0070846Y0016106D03*
D217*
X0070706Y0015986D03*
X0068906Y0014186D03*
D218*
X0062826Y0014227D03*
X0077346Y0014227D03*
D219*
X0070746Y0016027D03*
X0069506Y0014827D03*
X0068946Y0014227D03*
D220*
X0068966Y0014266D03*
X0070686Y0015946D03*
X0063566Y0016266D03*
D221*
X0063126Y0014306D03*
D222*
X0069006Y0014306D03*
X0069046Y0014346D03*
D223*
X0077666Y0014386D03*
D224*
X0070926Y0015386D03*
X0063326Y0014546D03*
D225*
X0063366Y0014666D03*
D226*
X0063366Y0014706D03*
D227*
X0063366Y0014746D03*
D228*
X0077826Y0014746D03*
X0077866Y0014786D03*
D229*
X0063406Y0014786D03*
D230*
X0064926Y0014986D03*
X0067326Y0014786D03*
D231*
X0063466Y0014827D03*
D232*
X0078046Y0014827D03*
D233*
X0077946Y0016186D03*
X0069946Y0015266D03*
X0069746Y0015066D03*
X0069546Y0014866D03*
D234*
X0064766Y0014906D03*
D235*
X0069586Y0014906D03*
X0069626Y0014946D03*
X0069666Y0014986D03*
X0069786Y0015106D03*
X0069826Y0015146D03*
X0069866Y0015186D03*
X0069986Y0015306D03*
X0070586Y0015866D03*
X0070626Y0015906D03*
D236*
X0069906Y0015227D03*
X0069706Y0015027D03*
D237*
X0070026Y0015346D03*
D238*
X0050226Y0015427D03*
D239*
X0063286Y0015746D03*
D240*
X0063466Y0015986D03*
X0077666Y0015746D03*
X0077706Y0015786D03*
D241*
X0063306Y0015786D03*
D242*
X0063346Y0015827D03*
D243*
X0070526Y0015827D03*
X0077966Y0016227D03*
D244*
X0077746Y0015827D03*
D245*
X0063366Y0015866D03*
D246*
X0077766Y0015866D03*
X0077806Y0015906D03*
D247*
X0063406Y0015906D03*
D248*
X0063426Y0015946D03*
D249*
X0077826Y0015946D03*
D250*
X0077866Y0015986D03*
X0063506Y0016066D03*
D251*
X0063486Y0016027D03*
D252*
X0077886Y0016027D03*
D253*
X0077906Y0016066D03*
X0063546Y0016146D03*
D254*
X0063526Y0016106D03*
D255*
X0077926Y0016106D03*
D256*
X0077986Y0016266D03*
X0070906Y0016146D03*
D257*
X0063546Y0016186D03*
X0077946Y0016146D03*
D258*
X0070966Y0016186D03*
X0063566Y0016306D03*
D259*
X0063566Y0016227D03*
D260*
X0071026Y0016227D03*
D261*
X0071086Y0016266D03*
D262*
X0071226Y0016346D03*
D263*
X0063586Y0016386D03*
D264*
X0071346Y0016386D03*
D265*
X0078026Y0016386D03*
D266*
X0069126Y0016427D03*
D267*
X0077946Y0016427D03*
D268*
X0099879Y0067111D02*
X0028225Y0067111D01*
X0028225Y0113568D01*
X0099879Y0113568D01*
X0099879Y0067111D01*
D269*
X0090796Y0072623D02*
X0090798Y0072728D01*
X0090804Y0072834D01*
X0090814Y0072938D01*
X0090828Y0073043D01*
X0090846Y0073147D01*
X0090867Y0073250D01*
X0090893Y0073352D01*
X0090923Y0073453D01*
X0090956Y0073553D01*
X0090993Y0073652D01*
X0091034Y0073749D01*
X0091078Y0073844D01*
X0091126Y0073938D01*
X0091178Y0074030D01*
X0091233Y0074120D01*
X0091291Y0074208D01*
X0091353Y0074293D01*
X0091418Y0074376D01*
X0091485Y0074457D01*
X0091556Y0074535D01*
X0091630Y0074610D01*
X0091707Y0074682D01*
X0091786Y0074752D01*
X0091868Y0074818D01*
X0091952Y0074881D01*
X0092039Y0074941D01*
X0092128Y0074998D01*
X0092219Y0075051D01*
X0092311Y0075101D01*
X0092406Y0075147D01*
X0092502Y0075190D01*
X0092600Y0075229D01*
X0092700Y0075264D01*
X0092800Y0075296D01*
X0092902Y0075323D01*
X0093005Y0075347D01*
X0093108Y0075367D01*
X0093212Y0075383D01*
X0093317Y0075395D01*
X0093422Y0075403D01*
X0093527Y0075407D01*
X0093633Y0075407D01*
X0093738Y0075403D01*
X0093843Y0075395D01*
X0093948Y0075383D01*
X0094052Y0075367D01*
X0094155Y0075347D01*
X0094258Y0075323D01*
X0094360Y0075296D01*
X0094460Y0075264D01*
X0094560Y0075229D01*
X0094658Y0075190D01*
X0094754Y0075147D01*
X0094849Y0075101D01*
X0094941Y0075051D01*
X0095032Y0074998D01*
X0095121Y0074941D01*
X0095208Y0074881D01*
X0095292Y0074818D01*
X0095374Y0074752D01*
X0095453Y0074682D01*
X0095530Y0074610D01*
X0095604Y0074535D01*
X0095675Y0074457D01*
X0095742Y0074376D01*
X0095807Y0074293D01*
X0095869Y0074208D01*
X0095927Y0074120D01*
X0095982Y0074030D01*
X0096034Y0073938D01*
X0096082Y0073844D01*
X0096126Y0073749D01*
X0096167Y0073652D01*
X0096204Y0073553D01*
X0096237Y0073453D01*
X0096267Y0073352D01*
X0096293Y0073250D01*
X0096314Y0073147D01*
X0096332Y0073043D01*
X0096346Y0072938D01*
X0096356Y0072834D01*
X0096362Y0072728D01*
X0096364Y0072623D01*
X0096362Y0072518D01*
X0096356Y0072412D01*
X0096346Y0072308D01*
X0096332Y0072203D01*
X0096314Y0072099D01*
X0096293Y0071996D01*
X0096267Y0071894D01*
X0096237Y0071793D01*
X0096204Y0071693D01*
X0096167Y0071594D01*
X0096126Y0071497D01*
X0096082Y0071402D01*
X0096034Y0071308D01*
X0095982Y0071216D01*
X0095927Y0071126D01*
X0095869Y0071038D01*
X0095807Y0070953D01*
X0095742Y0070870D01*
X0095675Y0070789D01*
X0095604Y0070711D01*
X0095530Y0070636D01*
X0095453Y0070564D01*
X0095374Y0070494D01*
X0095292Y0070428D01*
X0095208Y0070365D01*
X0095121Y0070305D01*
X0095032Y0070248D01*
X0094941Y0070195D01*
X0094849Y0070145D01*
X0094754Y0070099D01*
X0094658Y0070056D01*
X0094560Y0070017D01*
X0094460Y0069982D01*
X0094360Y0069950D01*
X0094258Y0069923D01*
X0094155Y0069899D01*
X0094052Y0069879D01*
X0093948Y0069863D01*
X0093843Y0069851D01*
X0093738Y0069843D01*
X0093633Y0069839D01*
X0093527Y0069839D01*
X0093422Y0069843D01*
X0093317Y0069851D01*
X0093212Y0069863D01*
X0093108Y0069879D01*
X0093005Y0069899D01*
X0092902Y0069923D01*
X0092800Y0069950D01*
X0092700Y0069982D01*
X0092600Y0070017D01*
X0092502Y0070056D01*
X0092406Y0070099D01*
X0092311Y0070145D01*
X0092219Y0070195D01*
X0092128Y0070248D01*
X0092039Y0070305D01*
X0091952Y0070365D01*
X0091868Y0070428D01*
X0091786Y0070494D01*
X0091707Y0070564D01*
X0091630Y0070636D01*
X0091556Y0070711D01*
X0091485Y0070789D01*
X0091418Y0070870D01*
X0091353Y0070953D01*
X0091291Y0071038D01*
X0091233Y0071126D01*
X0091178Y0071216D01*
X0091126Y0071308D01*
X0091078Y0071402D01*
X0091034Y0071497D01*
X0090993Y0071594D01*
X0090956Y0071693D01*
X0090923Y0071793D01*
X0090893Y0071894D01*
X0090867Y0071996D01*
X0090846Y0072099D01*
X0090828Y0072203D01*
X0090814Y0072308D01*
X0090804Y0072412D01*
X0090798Y0072518D01*
X0090796Y0072623D01*
M02*
