G75*
%MOIN*%
%OFA0B0*%
%FSLAX25Y25*%
%IPPOS*%
%LPD*%
%AMOC8*
5,1,8,0,0,1.08239X$1,22.5*
%
%ADD10R,0.03937X0.04331*%
%ADD11R,0.04331X0.03937*%
%ADD12R,0.06299X0.05906*%
%ADD13R,0.05118X0.05906*%
%ADD14R,0.03543X0.01181*%
D10*
X0013426Y0083432D03*
X0013426Y0090125D03*
X0112786Y0090992D03*
X0112786Y0097685D03*
D11*
X0112726Y0082205D03*
X0112726Y0075512D03*
X0062076Y0056231D03*
X0062076Y0049538D03*
X0045805Y0049682D03*
X0045805Y0056375D03*
D12*
X0055741Y0031079D03*
D13*
X0051607Y0040922D03*
X0059875Y0040922D03*
D14*
X0025666Y0067702D03*
X0025666Y0069670D03*
X0025666Y0071639D03*
X0025666Y0073607D03*
X0025666Y0075576D03*
X0025666Y0077544D03*
X0025666Y0079513D03*
X0025666Y0081481D03*
X0025666Y0083450D03*
X0025666Y0085418D03*
X0025666Y0087387D03*
X0025666Y0089355D03*
X0025666Y0091324D03*
X0025666Y0093292D03*
X0025666Y0095261D03*
X0025666Y0097229D03*
X0025666Y0099198D03*
X0025666Y0101166D03*
X0025666Y0103135D03*
X0025666Y0105103D03*
X0025666Y0107072D03*
X0025666Y0109040D03*
X0025666Y0111009D03*
X0025666Y0112977D03*
X0102438Y0112977D03*
X0102438Y0111009D03*
X0102438Y0109040D03*
X0102438Y0107072D03*
X0102438Y0105103D03*
X0102438Y0103135D03*
X0102438Y0101166D03*
X0102438Y0099198D03*
X0102438Y0097229D03*
X0102438Y0095261D03*
X0102438Y0093292D03*
X0102438Y0091324D03*
X0102438Y0089355D03*
X0102438Y0087387D03*
X0102438Y0085418D03*
X0102438Y0083450D03*
X0102438Y0081481D03*
X0102438Y0079513D03*
X0102438Y0077544D03*
X0102438Y0075576D03*
X0102438Y0073607D03*
X0102438Y0071639D03*
X0102438Y0069670D03*
X0102438Y0067702D03*
M02*
